<svg width="16" height="15" viewBox="0 0 16 15" fill="none" xmlns="http://www.w3.org/2000/svg">
<path d="M1 8H12.86L9.23 12.36C9.146 12.4611 9.0826 12.5778 9.0437 12.7034C9.0047 12.829 8.9909 12.961 9.003 13.0919C9.0274 13.3564 9.1558 13.6003 9.36 13.77C9.5642 13.9397 9.8275 14.0214 10.0919 13.997C10.3563 13.9726 10.6003 13.8442 10.77 13.64L15.77 7.64C15.8036 7.5923 15.8337 7.5421 15.86 7.49C15.86 7.44 15.91 7.41 15.93 7.36C15.9753 7.2453 15.9991 7.1233 16 7C15.9991 6.8767 15.9753 6.7547 15.93 6.64C15.93 6.59 15.88 6.56 15.86 6.51C15.8337 6.4579 15.8036 6.4077 15.77 6.36L10.77 0.360002C10.676 0.247122 10.5582 0.156342 10.4252 0.0941219C10.2921 0.0319019 10.1469 -0.000238143 10 1.8565e-06C9.7663 -0.000448143 9.5399 0.0809219 9.36 0.230002C9.2587 0.313952 9.175 0.417052 9.1137 0.533402C9.0523 0.649752 9.0145 0.777052 9.0025 0.908032C8.9904 1.03901 9.0043 1.17108 9.0433 1.29668C9.0824 1.42229 9.1458 1.53895 9.23 1.64L12.86 6H1C0.73478 6 0.48043 6.1054 0.29289 6.2929C0.10536 6.4804 0 6.7348 0 7C0 7.2652 0.10536 7.5196 0.29289 7.7071C0.48043 7.8946 0.73478 8 1 8Z" fill="#090B37"/>
</svg>
