<svg width="1158" height="906" viewBox="0 0 1158 906" fill="none" xmlns="http://www.w3.org/2000/svg">
<g filter="url(#filter0_d_1:68)">
<g clip-path="url(#clip0_1:68)">
<path d="M1152 0H0V900.165H1152V0Z" fill="url(#paint0_linear_1:68)"/>
<path d="M1155 804.103H78.9999V901.139H1155V804.103Z" stroke="#090B37" stroke-width="2"/>
<path d="M1070.9 60.305H1065.1C1045.16 60.305 1029 78.716 1029 101.427C1029 124.138 1045.16 142.549 1065.1 142.549H1070.9C1090.84 142.549 1107 124.138 1107 101.427C1107 78.716 1090.84 60.305 1070.9 60.305Z" stroke="#090B37" stroke-width="2"/>
<path d="M706 74.931H642V77.2095H706V74.931Z" fill="#090B37"/>
<path d="M802 74.931H738V77.2095H802V74.931Z" fill="#090B37"/>
<path d="M898 74.931H834V77.2095H898V74.931Z" fill="#090B37"/>
<path d="M-1 51.2658L-1 912.532H79L79 51.2658H-1Z" stroke="#090B37" stroke-width="2"/>
<path d="M1153 51.2658H-2.00012V99.1139H1153V51.2658Z" stroke="#090B37" stroke-width="2"/>
<path d="M974.733 803.247L1067.73 901.505" stroke="#090B37" stroke-width="2"/>
<path d="M27.9999 32.8539C31.8659 32.8539 34.9999 29.2835 34.9999 24.8792C34.9999 20.4749 31.8659 16.9045 27.9999 16.9045C24.1339 16.9045 20.9999 20.4749 20.9999 24.8792C20.9999 29.2835 24.1339 32.8539 27.9999 32.8539Z" stroke="#090B37" stroke-width="2"/>
<path d="M49.3333 32.8539C53.1993 32.8539 56.3333 29.2835 56.3333 24.8792C56.3333 20.4749 53.1993 16.9045 49.3333 16.9045C45.4673 16.9045 42.3333 20.4749 42.3333 24.8792C42.3333 29.2835 45.4673 32.8539 49.3333 32.8539Z" stroke="#090B37" stroke-width="2"/>
<path d="M70.6665 32.8539C74.5325 32.8539 77.6665 29.2835 77.6665 24.8792C77.6665 20.4749 74.5325 16.9045 70.6665 16.9045C66.8005 16.9045 63.6665 20.4749 63.6665 24.8792C63.6665 29.2835 66.8005 32.8539 70.6665 32.8539Z" stroke="#090B37" stroke-width="2"/>
</g>
<path d="M2 2H1150V898H2V2Z" stroke="#090B37" stroke-width="4"/>
</g>
<defs>
<filter id="filter0_d_1:68" x="0" y="0" width="1158" height="906" filterUnits="userSpaceOnUse" color-interpolation-filters="sRGB">
<feFlood flood-opacity="0" result="BackgroundImageFix"/>
<feColorMatrix in="SourceAlpha" type="matrix" values="0 0 0 0 0 0 0 0 0 0 0 0 0 0 0 0 0 0 127 0" result="hardAlpha"/>
<feOffset dx="6" dy="6"/>
<feColorMatrix type="matrix" values="0 0 0 0 0.0352941 0 0 0 0 0.0431373 0 0 0 0 0.215686 0 0 0 1 0"/>
<feBlend mode="normal" in2="BackgroundImageFix" result="effect1_dropShadow_1:68"/>
<feBlend mode="normal" in="SourceGraphic" in2="effect1_dropShadow_1:68" result="shape"/>
</filter>
<linearGradient id="paint0_linear_1:68" x1="576" y1="0" x2="576" y2="900.165" gradientUnits="userSpaceOnUse">
<stop stop-color="#C1C8FB"/>
<stop offset="1" stop-color="#9E98F8"/>
</linearGradient>
<clipPath id="clip0_1:68">
<path d="M0 0H1152V900H0V0Z" fill="white"/>
</clipPath>
</defs>
</svg>
